<svg id="Layer_1" data-name="Layer 1" xmlns="http://www.w3.org/2000/svg" viewBox="0 0 500 500"><defs><style>.cls-1{fill:#333;}</style></defs><title>default</title><path class="cls-1" d="M28,501c0-16.64-.7-33.33.29-49.91,2.36-39.92,10.52-78.4,33.26-112.25,14.62-21.75,35.7-33.91,61.56-37.49a40.44,40.44,0,0,1,30.21,7.43c19.25,13.88,39.8,25.35,63,31.3,35.91,9.21,70.22,4.08,102.85-12.78,9.86-5.09,18.91-11.74,28.6-17.2,6.15-3.46,12.54-7,19.28-8.77,10.15-2.61,20,1.28,29.64,4.28,23.72,7.38,40.05,23.61,52.09,44.68,10.92,19.13,16.4,40.17,20.85,61.46a274.63,274.63,0,0,1,6.1,64.89c-.25,8.13-1.13,16.24-1.72,24.36Z"/><path class="cls-1" d="M251.82,320.25c-69,0-124.35-54.36-122.66-123.6,1.55-64,53.07-118.16,122.86-118.2,67.94,0,122.4,54.83,121.67,122.41C373,269.21,317.12,320.62,251.82,320.25Z"/></svg>