<?xml version="1.0" encoding="utf-8"?>
<!-- Generator: Adobe Illustrator 22.1.0, SVG Export Plug-In . SVG Version: 6.00 Build 0)  -->
<svg version="1.1" xmlns="http://www.w3.org/2000/svg" xmlns:xlink="http://www.w3.org/1999/xlink" x="0px" y="0px"
	 viewBox="0 0 217.7 217.7" style="enable-background:new 0 0 217.7 217.7;" xml:space="preserve">
<style type="text/css">
	.st0{fill:#FFFFFF;}
	.st1{fill:url(#SVGID_1_);}
	.st2{fill:url(#SVGID_2_);}
	.st3{fill:url(#SVGID_3_);}
	.st4{fill:url(#SVGID_4_);}
	.st5{fill:url(#SVGID_5_);}
</style>
<g id="Layer_2">
	<polygon class="st0" points="6.1,60.4 40.8,56.6 90.5,60.4 146.8,68 158.3,72.3 115.5,114.3 20.8,120 7.8,87.3 2.5,67.5 	"/>
</g>
<g id="Layer_1">
	<title>fav</title>
	
		<linearGradient id="SVGID_1_" gradientUnits="userSpaceOnUse" x1="-4.113514e-03" y1="386.6133" x2="206.1447" y2="386.6133" gradientTransform="matrix(1 0 0 1 0 -279.44)">
		<stop  offset="0" style="stop-color:#FF65A5"/>
		<stop  offset="0.27" style="stop-color:#FD6996"/>
		<stop  offset="0.78" style="stop-color:#F97270"/>
		<stop  offset="1" style="stop-color:#F7775D"/>
	</linearGradient>
	<path class="st1" d="M104.3,160.1c-2.4,0-4.9-0.1-7.4-0.3c-50.6-3.5-91.4-42.7-96.9-93.1c-0.3-2.6,0.5-5.3,2.2-7.3
		c2.1-2.4,5.1-3.8,8.3-4l0,0c54.4-3.8,94,2.7,125.8,8c23.6,3.9,42.2,7,59.6,4.9c2.8-0.3,5.6,0.8,7.5,3c2.3,2.7,3.2,6.3,2.4,9.8
		C194.1,127.5,152.3,160.1,104.3,160.1z M11,61.5c-1.6,0-3,0.7-4.1,1.9c-0.6,0.7-0.9,1.7-0.8,2.7c5.2,47.5,43.6,84.4,91.3,87.6
		c2.3,0.2,4.7,0.2,7,0.2c45.1,0,84.5-30.6,95.6-74.4c0.3-1.5,0-3-1-4.2c-0.5-0.7-1.3-1-2.1-0.9c-18.3,2.3-37.3-0.9-61.3-4.9
		C103.9,64.3,64.7,57.8,11,61.5z"/>
	
		<linearGradient id="SVGID_2_" gradientUnits="userSpaceOnUse" x1="50.8562" y1="417.8892" x2="159.59" y2="417.8892" gradientTransform="matrix(1 0 0 1 0 -279.44)">
		<stop  offset="0" style="stop-color:#FF65A5"/>
		<stop  offset="0.27" style="stop-color:#FD6996"/>
		<stop  offset="0.78" style="stop-color:#F97270"/>
		<stop  offset="1" style="stop-color:#F7775D"/>
	</linearGradient>
	<path class="st2" d="M155.2,163.5c2.5,0,4.4-2,4.4-4.5c0,0,0,0,0,0c0-0.3,0-0.6-0.1-0.8c-5.9-30-34.9-49.5-64.9-43.7
		c-22.1,4.3-39.4,21.6-43.7,43.7c-0.5,2.4,1.1,4.7,3.5,5.2c0.3,0.1,0.6,0.1,0.8,0.1H155.2z"/>
	
		<linearGradient id="SVGID_3_" gradientUnits="userSpaceOnUse" x1="9.3919" y1="389.4475" x2="217.7349" y2="389.4475" gradientTransform="matrix(1 0 0 1 0 -279.44)">
		<stop  offset="0" style="stop-color:#FF65A5"/>
		<stop  offset="0.27" style="stop-color:#FD6996"/>
		<stop  offset="0.78" style="stop-color:#F97270"/>
		<stop  offset="1" style="stop-color:#F7775D"/>
	</linearGradient>
	<path class="st3" d="M192.7,56.6c25.3-0.7,25.8,7.7,24.7,13.2C206,132,146.3,173,84.2,161.5c-30.2-5.6-56.9-23.1-74.1-48.6
		c-1.6-2.3-0.6-4.9,5.1-3.8c11.6,2.2,37.5,10.2,65.6,1.3C113.6,100.1,149.2,57.8,192.7,56.6z"/>
	
		<linearGradient id="SVGID_4_" gradientUnits="userSpaceOnUse" x1="62.0353" y1="385.3943" x2="70.2196" y2="385.3943" gradientTransform="matrix(1 0 0 1 0 -279.44)">
		<stop  offset="0" style="stop-color:#FF65A5"/>
		<stop  offset="0.27" style="stop-color:#FD6996"/>
		<stop  offset="0.78" style="stop-color:#F97270"/>
		<stop  offset="1" style="stop-color:#F7775D"/>
	</linearGradient>
	<path class="st4" d="M69.3,108.1c-1.4,1.5-4.3,2-5.8,0.6s-2.1-3.2-0.7-4.7c1.5-1.5,4.4-2.3,5.9-0.8S70.8,106.6,69.3,108.1z"/>
	
		<linearGradient id="SVGID_5_" gradientUnits="userSpaceOnUse" x1="35.01" y1="382.2701" x2="42.67" y2="382.2701" gradientTransform="matrix(1 0 0 1 0 -279.44)">
		<stop  offset="0" style="stop-color:#FF65A5"/>
		<stop  offset="0.27" style="stop-color:#FD6996"/>
		<stop  offset="0.78" style="stop-color:#F97270"/>
		<stop  offset="1" style="stop-color:#F7775D"/>
	</linearGradient>
	<path class="st5" d="M38.1,99.1c2.1-0.1,4.5,1.6,4.5,3.7s-0.7,3.8-2.8,3.8s-4.7-1.4-4.8-3.6S36,99.2,38.1,99.1z"/>
</g>
</svg>
