<svg id="Layer_1" data-name="Layer 1" xmlns="http://www.w3.org/2000/svg" viewBox="0 0 217.74 109.18"><defs><style>.cls-1{fill:#fff;}</style></defs><title>logo-white</title><path class="cls-1" d="M104.34,105.77c-2.45,0-4.91-.08-7.38-.26A104.67,104.67,0,0,1,.06,12.45,9.61,9.61,0,0,1,2.24,5.17a11.87,11.87,0,0,1,8.32-4h0C65-2.68,104.58,3.91,136.4,9.21c23.58,3.92,42.21,7,59.59,4.87a8.47,8.47,0,0,1,7.46,3,10.85,10.85,0,0,1,2.38,9.75A104.65,104.65,0,0,1,104.34,105.77ZM11,7.23A5.8,5.8,0,0,0,6.93,9.09a3.47,3.47,0,0,0-.8,2.7A98.56,98.56,0,0,0,97.38,99.42q3.5.24,7,.24a98.53,98.53,0,0,0,95.58-74.37,4.82,4.82,0,0,0-1-4.21,2.35,2.35,0,0,0-2.13-.94c-18.26,2.25-37.27-.9-61.34-4.91C103.9,10,64.69,3.47,11,7.23Z"/><path class="cls-1" d="M155.17,109.18a4.44,4.44,0,0,0,4.34-5.3,55.31,55.31,0,0,0-108.57,0,4.44,4.44,0,0,0,4.35,5.3Z"/><path class="cls-1" d="M192.72,2.33c25.26-.72,25.75,7.72,24.74,13.23a114.4,114.4,0,0,1-111.78,93.59A114.24,114.24,0,0,1,10.06,58.62c-1.55-2.3-.62-4.88,5.1-3.79C26.73,57,52.66,65,80.76,56.16,113.6,45.84,149.17,3.56,192.72,2.33Z"/><path class="cls-1" d="M69.33,53.85c-1.45,1.53-4.27,2-5.8.56s-2.11-3.2-.66-4.73,4.39-2.28,5.93-.83S70.79,52.32,69.33,53.85Z"/><path class="cls-1" d="M38.12,44.8c2.11-.08,4.46,1.55,4.54,3.66s-.73,3.76-2.84,3.84S35.09,50.86,35,48.75,36,44.88,38.12,44.8Z"/></svg>