<svg id="Layer_1" data-name="Layer 1" xmlns="http://www.w3.org/2000/svg" viewBox="0 0 1422.7 145.33"><defs><style>.cls-1{fill:#fff;}</style></defs><title>logo-wide-white</title><path class="cls-1" d="M432.81,142.15l-.39-63.33-30.18,50.82H381.59L351.42,81v61.15H308.73V3.17h38.52l45.26,74.06L436.59,3.17h38.52l.39,139Z"/><path class="cls-1" d="M618.64,106.82v35.33H503.1V3.17h113V38.51H549.15V54.8h58.77V88.55H549.15v18.27Z"/><path class="cls-1" d="M673.83,136.1a69.18,69.18,0,0,1-27.7-25.81q-10-16.58-10-37.63t10-37.61a69.14,69.14,0,0,1,27.7-25.82Q691.5,0,713.54,0q20.25,0,36.13,7.15a67.15,67.15,0,0,1,26.21,20.64L746.3,54.2q-12.9-16.28-30.38-16.28-14.68,0-23.62,9.43t-8.93,25.31q0,15.89,8.93,25.32t23.62,9.43q17.48,0,30.38-16.28l29.58,26.41a67.27,67.27,0,0,1-26.21,20.65q-15.88,7.13-36.13,7.14Q691.49,145.33,673.83,136.1Z"/><path class="cls-1" d="M1005.78,3.17v139H967.27L914.45,79v63.13H868.79V3.17h38.52l52.81,63.14V3.17Z"/><path class="cls-1" d="M801.1,135.71q-6.61-6.44-6.63-16.51t6.63-16.32q6.61-6.27,16.68-6.27t16.68,6.27q6.62,6.27,6.62,16.32t-6.62,16.51q-6.62,6.45-16.68,6.44T801.1,135.71Z"/><path class="cls-1" d="M801.1,87.41Q794.49,81,794.47,70.9t6.63-16.33q6.61-6.27,16.68-6.26t16.68,6.26q6.62,6.27,6.62,16.33t-6.62,16.51a24.82,24.82,0,0,1-33.36,0Z"/><path class="cls-1" d="M1051.64,89Q1045,82.56,1045,72.48t6.63-16.32q6.61-6.27,16.67-6.27T1085,56.16q6.62,6.27,6.62,16.32T1085,89q-6.63,6.45-16.69,6.44T1051.64,89Z"/><path class="cls-1" d="M801.1,39.1q-6.61-6.45-6.63-16.51T801.1,6.27Q807.71,0,817.78,0t16.68,6.27q6.62,6.25,6.62,16.32T834.46,39.1a24.82,24.82,0,0,1-33.36,0Z"/><path class="cls-1" d="M1215.43,117.93h-52.8l-9.34,24.22h-47.64l60.75-139h46.06l60.75,139h-48.44Zm-12.9-33.75-13.5-35-13.5,35Z"/><path class="cls-1" d="M1422.7,3.17v139h-38.51L1331.38,79v63.13h-45.67V3.17h38.53L1377,66.31V3.17Z"/><path class="cls-1" d="M136.28,135.55q-4.22,0-8.48-.3A120.22,120.22,0,0,1,16.51,28.37,11,11,0,0,1,19,20a13.66,13.66,0,0,1,9.55-4.64h0c62.5-4.38,108,3.19,144.53,9.27,27.08,4.5,48.47,8.06,68.44,5.6a9.75,9.75,0,0,1,8.56,3.39,12.48,12.48,0,0,1,2.73,11.2A120.19,120.19,0,0,1,136.28,135.55ZM29.06,22.37a6.75,6.75,0,0,0-4.66,2.15,3.93,3.93,0,0,0-.91,3.09,113.2,113.2,0,0,0,104.8,100.65c2.67.18,5.34.27,8,.27A113.14,113.14,0,0,0,246,43.12a5.54,5.54,0,0,0-1.19-4.84,2.69,2.69,0,0,0-2.44-1.07c-21,2.58-42.81-1-70.45-5.64-36.18-6-81.21-13.51-142.89-9.2Z"/><path class="cls-1" d="M194.65,139.46a5.1,5.1,0,0,0,5-6.09,63.52,63.52,0,0,0-124.69,0,5.1,5.1,0,0,0,5,6.09Z"/><path class="cls-1" d="M237.78,16.75c29-.82,29.57,8.87,28.41,15.19a131.4,131.4,0,0,1-128.38,107.5A131.23,131.23,0,0,1,28,81.4c-1.78-2.64-.71-5.6,5.86-4.36,13.29,2.52,43.07,11.67,75.34,1.53C146.91,66.72,187.76,18.17,237.78,16.75Z"/><path class="cls-1" d="M96.07,75.92c-1.67,1.76-4.91,2.31-6.67.64s-2.42-3.67-.75-5.43,5-2.62,6.81-.95S97.74,74.16,96.07,75.92Z"/><path class="cls-1" d="M60.22,65.52c2.43-.09,5.13,1.78,5.22,4.21s-.83,4.32-3.26,4.41-5.44-1.66-5.53-4.08S57.8,65.62,60.22,65.52Z"/></svg>