<svg id="Layer_2" data-name="Layer 2" xmlns="http://www.w3.org/2000/svg" xmlns:xlink="http://www.w3.org/1999/xlink" viewBox="0 0 1333 1800"><defs><style>.cls-1{fill:url(#linear-gradient);}.cls-2{fill:#ff8965;}.cls-3{fill:#f1f1f1;}.cls-4{fill:#999;}.cls-5{fill:#3f3d56;}.cls-6{fill:#2f2e41;}.cls-7{fill:#9f616a;}.cls-8{fill:#a0616a;}.cls-9{fill:none;stroke:#3f3d56;stroke-miterlimit:10;stroke-width:2px;}.cls-10{fill:#ff6584;}.cls-11,.cls-12{fill:#ff7d72;}.cls-12{opacity:0.3;isolation:isolate;}</style><linearGradient id="linear-gradient" x1="1607.6" y1="1525.4" x2="483.14" y2="400.95" gradientUnits="userSpaceOnUse"><stop offset="0" stop-color="#ff65a5"/><stop offset="1" stop-color="#ff8965"/></linearGradient></defs><title>bg-01</title><path class="cls-1" d="M706,461.5c27.4,15.78,60,50.5,15,105.5C615.49,696,360.67,683.71,248,705,121,729,46,841,31,878s-76,207,32,305,424.71,174.91,369.36,295.46S458,1636.16,571,1673c46,15,762,127,762,127V0L1043,73S812.42,139.34,694,229C624,282,521,355,706,461.5Z"/><path class="cls-2" d="M416.43,379.82c57.43,38.05,101.63,42.14,165.69,58.43s95.19,17.47,101.93,47.13-2.25,47.21-44,69.69c-11.85,6.37-92.5,45.48-158.69,61.37-21.41,5.14-123.26,25.88-151.63,27.9-79.8,5.66-129.12-15.49-140.49-90s-9.59-159.79,15.34-200.23c25.62-41.57,49.1-33.93,94.61-26.57S403.92,371.54,416.43,379.82Z"/><circle class="cls-3" cx="1084.69" cy="791.48" r="20.15"/><circle class="cls-3" cx="965.88" cy="1571.23" r="20.15"/><circle class="cls-3" cx="464.71" cy="985.39" r="20.15"/><ellipse class="cls-4" cx="277.4" cy="1768.59" rx="214.4" ry="31.41"/><path class="cls-5" d="M390.65,1541.87,444.48,1525a197.23,197.23,0,0,0-20.11-64.18l-53.82,16.86A121,121,0,0,1,390.65,1541.87Z"/><circle class="cls-6" cx="261.28" cy="1087.64" r="50.25"/><polygon class="cls-7" points="207.07 1717.38 197.51 1758.35 220.73 1758.35 230.28 1711.92 207.07 1717.38"/><polygon class="cls-7" points="319.05 1717.38 319.05 1755.62 342.26 1758.35 342.26 1717.38 319.05 1717.38"/><path class="cls-7" d="M200.24,1283.12s2.73,58.72,5.46,62.82S233,1408.76,233,1408.76l12.29-38.24s-19.12-31.41-16.39-49.16,1-39.6,1-39.6Z"/><circle class="cls-7" cx="278.08" cy="1102.87" r="38.24"/><path class="cls-7" d="M246.67,1107s1.37,54.63-8.19,62.82,54.62,1.37,54.62,1.37-13.65-38.24-2.73-46.43S246.67,1107,246.67,1107Z"/><path class="cls-6" d="M297.2,1168.41s-8.19-15-19.12-13.65-46.43,4.09-47.8,6.83-5.46,12.29-8.19,15-23.21,6.83-24.58,23.21,49.16,116.08,49.16,116.08-6.83,23.21-5.46,28.68-6.83,21.84-5.46,28.67-20.49,47.8-9.56,101.06v86s-36.87,148.85-25.95,159.77,47.8,4.1,54.63,0,35.5-210.3,35.5-210.3L304,1440.17l1.36,152.94s-2.73,128.37,6.83,132.47,46.43,5.46,49.16-2.74c2.13-6.39,12.57-176.41,17.06-250.95a278.85,278.85,0,0,0-6-76.71c-5.69-25.78-13.94-56.07-23.34-68.36-17.75-23.21-28.68-97-28.68-97l23.22-42.34s-13.66-13.65-21.85-13.65S297.2,1168.41,297.2,1168.41Z"/><path class="cls-6" d="M205.7,1190.26l-7.2,4.91s-5.09,87.95-1,93.42,32.58,2.79,34.73-2S205.7,1190.26,205.7,1190.26Z"/><path class="cls-7" d="M317.68,1272.2s1.37,57.35,9.56,73.74,38.24,84.67,38.24,84.67-1.75,75.15,13.47,56.69,5.65-62.15,5.65-62.15l-26-101.06S345,1279,346.36,1265.37,317.68,1272.2,317.68,1272.2Z"/><path class="cls-6" d="M342.26,1733.49s1.37-1.09,5.47,3,15,9.56,13.65,24.58-9.56,17.75-9.56,17.75v-4.09h-4.09v6.82s-6.83,21.85-38.24,8.2c0,0-1.37-10.93,0-17.75s1.36-39.61,5.46-38.24,15,2.73,17.75,8.19S343.63,1745.51,342.26,1733.49Z"/><path class="cls-6" d="M201.61,1734.86s-1.37-1.09-5.46,3-15,9.55-13.66,24.58,9.56,17.75,9.56,17.75v-4.1h4.1v6.83s6.82,21.85,38.23,8.19c0,0,1.37-10.92,0-17.75s-1.36-39.6-5.46-38.24-15,2.74-17.75,8.2S200.24,1746.88,201.61,1734.86Z"/><path class="cls-6" d="M324.51,1183.44l19.12,4.09s0,30,5.46,42.34,15,41,10.93,42.33-42.34,20.48-45.07,9.56S305.39,1183.44,324.51,1183.44Z"/><circle class="cls-6" cx="206.84" cy="1021.48" r="50.25"/><path class="cls-6" d="M163.5,1063.09a50.24,50.24,0,0,0,77.6-26.39,50.26,50.26,0,1,1-98-20.61A50.25,50.25,0,0,0,163.5,1063.09Z"/><circle class="cls-6" cx="247.88" cy="1096.02" r="36.85"/><ellipse class="cls-6" cx="278.87" cy="1082.2" rx="32.66" ry="25.55"/><ellipse class="cls-8" cx="287.59" cy="1108.38" rx="6.2" ry="10.97"/><rect class="cls-3" x="589.75" y="774.29" width="585.84" height="729.23" transform="translate(-461.97 1656.74) rotate(-73.29)"/><line class="cls-9" x1="897.6" y1="917.68" x2="1063.03" y2="984.55"/><polygon class="cls-5" points="901.81 931.43 904.28 930.27 898.57 918.08 911.15 913.27 910.18 910.72 894.85 916.57 901.81 931.43"/><polygon class="cls-5" points="1050.45 991.51 1049.48 988.96 1062.06 984.16 1056.35 971.96 1058.83 970.8 1065.78 985.66 1050.45 991.51"/><circle class="cls-5" cx="980.32" cy="951.11" r="15.02"/><line class="cls-9" x1="885" y1="1381.24" x2="1037.4" y2="1288.45"/><polygon class="cls-5" points="898.53 1386.08 899.09 1383.4 885.89 1380.7 889.55 1367.74 886.92 1367 882.47 1382.79 898.53 1386.08"/><polygon class="cls-5" points="1035.48 1302.7 1032.85 1301.96 1036.51 1289 1023.31 1286.3 1023.86 1283.62 1039.93 1286.91 1035.48 1302.7"/><circle class="cls-5" cx="961.2" cy="1334.85" r="15.02"/><line class="cls-9" x1="693.51" y1="1087.22" x2="693.57" y2="1265.65"/><polygon class="cls-5" points="682.35 1096.28 684.35 1098.14 693.51 1088.27 702.68 1098.13 704.68 1096.27 693.51 1084.26 682.35 1096.28"/><polygon class="cls-5" points="682.39 1256.61 684.4 1254.74 693.57 1264.61 702.73 1254.74 704.73 1256.6 693.57 1268.61 682.39 1256.61"/><circle class="cls-5" cx="693.54" cy="1176.44" r="15.02"/><rect class="cls-5" x="566.9" y="723.91" width="248.54" height="308.62"/><path class="cls-10" d="M675.63,838.81h-56.4a197.23,197.23,0,0,1,0-67.25h56.4A121.08,121.08,0,0,0,675.63,838.81Z"/><path class="cls-11" d="M706.71,872.92h56.4a197.23,197.23,0,0,0,0-67.25h-56.4A120.9,120.9,0,0,1,706.71,872.92Z"/><path class="cls-11" d="M653.45,984.9h56.41a197.28,197.28,0,0,0,0-67.26H653.45A120.94,120.94,0,0,1,653.45,984.9Z"/><rect class="cls-5" x="1084.46" y="1017.52" width="248.54" height="308.62"/><rect class="cls-11" x="1119.97" y="1083.06" width="177.53" height="8.19"/><rect class="cls-11" x="1119.97" y="1111.74" width="177.53" height="8.19"/><rect class="cls-11" x="1119.97" y="1140.42" width="177.53" height="8.19"/><rect class="cls-11" x="1119.97" y="1169.1" width="177.53" height="8.19"/><rect class="cls-11" x="1119.97" y="1197.77" width="177.53" height="8.19"/><rect class="cls-11" x="1162.3" y="1227.82" width="92.86" height="32.77"/><rect class="cls-5" x="588.75" y="1334.33" width="248.54" height="308.62"/><rect class="cls-11" x="624.66" y="1506.13" width="177.53" height="8.19"/><rect class="cls-11" x="624.66" y="1534.81" width="177.53" height="8.19"/><rect class="cls-11" x="624.66" y="1563.49" width="177.53" height="8.19"/><rect class="cls-11" x="624.66" y="1592.17" width="177.53" height="8.19"/><path class="cls-12" d="M679.05,1444.18H622.64a197.23,197.23,0,0,1,0-67.25h56.41A120.9,120.9,0,0,0,679.05,1444.18Z"/><rect class="cls-12" x="702.5" y="1383.23" width="103.78" height="6.83"/><rect class="cls-12" x="702.5" y="1407.81" width="103.78" height="6.83"/><rect class="cls-12" x="702.5" y="1432.39" width="103.78" height="6.83"/><rect class="cls-12" x="702.5" y="1456.97" width="103.78" height="6.83"/></svg>